<svg width="24" height="24" viewBox="0 0 32 32"><g><path data-color="color-2" fill="#FFFFFF" d="M31.832,9.445l-4-6c-0.15-0.226-0.386-0.381-0.653-0.429l-11-2 c-0.011-0.002-0.022,0-0.032-0.002C16.098,1.008,16.049,1.008,16,1.008c-0.049,0-0.098,0-0.146,0.007 c-0.011,0.002-0.022-0.001-0.032,0.002l-11,2C4.554,3.064,4.318,3.22,4.168,3.445l-4,6c-0.204,0.307-0.224,0.701-0.05,1.026 S0.631,11,1,11h11c0.379,0,0.725-0.214,0.895-0.553L16,4.236l3.105,6.211C19.275,10.786,19.621,11,20,11h11 c0.369,0,0.708-0.203,0.882-0.528S32.036,9.752,31.832,9.445z"></path><path fill="#FFFFFF" d="M20,13c-1.143,0-2.17-0.635-2.683-1.656L17,10.709v19.935l10.414-4.734C27.771,25.748,28,25.393,28,25V13H20 z"></path><path fill="#FFFFFF" d="M15,10.709l-0.316,0.633C14.17,12.365,13.143,13,12,13H4v12c0,0.393,0.229,0.748,0.586,0.91L15,30.644 V10.709z"></path></g></svg>