<svg width="24" height="24" viewBox="0 0 24 24"><g><path d="M21.545,16.568,16.84,13.732A10.3,10.3,0,0,0,19,7.007V6h-.029A2.72,2.72,0,0,0,20,3.934c0-2.626-4.024-4-8-4s-8,1.374-8,4A2.72,2.72,0,0,0,5.029,6H5V7.007a10.3,10.3,0,0,0,2.16,6.725l-4.7,2.836A3.006,3.006,0,0,0,1,19.144v3.863a1,1,0,0,0,1,1h9v-4a1,1,0,0,1,2,0v4h9a1,1,0,0,0,1-1V19.139A3.013,3.013,0,0,0,21.545,16.568ZM12,2a2,2,0,1,1-2,2A2,2,0,0,1,12,2Zm0,12.007c-2.917,0-4.959-2.828-5-6.889a14.638,14.638,0,0,0,5,.816,14.638,14.638,0,0,0,5-.816C16.959,11.179,14.917,14.007,12,14.007Z" fill="#FFFFFF"></path></g></svg>